<svg width="329" height="67" viewBox="0 0 329 67" fill="none" xmlns="http://www.w3.org/2000/svg">
<path d="M0 5.07692C0 1.69231 1.70255 0 5.10764 0H27.5812C30.782 0 33.7104 0.541538 36.4345 1.69231C39.0905 2.77538 41.4059 4.4 43.2447 6.43077C45.1515 8.46154 46.5817 10.8308 47.6713 13.6062C48.6928 16.3815 49.2376 19.4277 49.2376 22.7446C49.2376 26.0615 48.6928 29.1077 47.6713 31.9508C46.6498 34.7262 45.1515 37.1631 43.2447 39.1938C41.3378 41.2246 39.0905 42.7815 36.4345 43.9323C33.7785 45.0831 30.8501 45.6246 27.5812 45.6246H16.2763V60.9231C16.2763 64.3077 14.5738 66 11.1687 66H5.10764C1.70255 66 0 64.3077 0 60.9231V5.07692ZM24.2443 31.7477C27.1045 31.7477 29.2157 30.9354 30.5777 29.1754C31.9398 27.4831 32.6889 25.3169 32.6889 22.6769C32.6889 20.0369 32.0079 17.8708 30.6458 16.2462C29.2838 14.6215 27.2407 13.8092 24.5167 13.8092H16.2763V31.7477H24.2443Z" fill="#AEF3B1"/>
<path d="M69.7363 4.12923C70.6897 1.35385 72.5966 0 75.5249 0H83.9015C86.8298 0 88.7367 1.35385 89.6901 4.12923L108.827 60.2462C109.44 62.0062 109.372 63.4277 108.622 64.5108C107.873 65.5262 106.511 66.0677 104.673 66.0677H98.5434C95.615 66.0677 93.7081 64.6462 92.7547 61.8031L89.9625 52.1908H69.2596L66.4674 61.8031C65.6502 64.6462 63.7433 66.0677 60.8149 66.0677H54.6858C52.847 66.0677 51.485 65.5262 50.7359 64.5108C49.9867 63.4954 49.8505 62.0738 50.5316 60.2462L69.7363 4.12923ZM86.1488 39.2615L82.4032 26.4C82.0627 25.3846 81.7903 24.1662 81.5179 22.88C81.2455 21.5938 80.9731 20.3754 80.6326 19.1569C80.2921 17.8031 80.0197 16.4492 79.6791 15.0277H79.4748C79.1343 16.4492 78.8619 17.8031 78.5214 19.1569C78.1809 20.3077 77.9085 21.5262 77.6361 22.88C77.3637 24.1662 77.0913 25.3169 76.7508 26.4L72.9371 39.2615H86.1488Z" fill="#AEF3B1"/>
<path d="M116.454 5.07692C116.454 1.69231 118.157 0 121.562 0H139.609C143.014 0 145.67 0.135385 147.577 0.338462C149.484 0.609231 151.118 1.01538 152.548 1.55692C156.294 2.97846 159.29 5.34769 161.538 8.59692C163.717 11.9138 164.806 15.9077 164.806 20.7138C164.806 22.4738 164.602 24.3015 164.194 25.9938C163.785 27.7538 163.172 29.4462 162.355 31.0708C161.538 32.6954 160.448 34.1846 159.222 35.4708C157.996 36.8246 156.498 37.84 154.864 38.6523V38.8554C155.068 39.1262 155.272 39.3969 155.545 39.8031C155.817 40.1415 156.089 40.5477 156.362 41.0215C156.634 41.5631 156.975 42.1723 157.451 42.8492L166.918 59.84C167.939 61.6 168.143 63.0892 167.462 64.24C166.781 65.3908 165.419 65.9323 163.444 65.9323H156.362C153.706 65.9323 151.663 64.7138 150.301 62.3446L140.426 43.6615H132.799V60.9231C132.799 64.3077 131.096 66 127.691 66H121.63C118.225 66 116.522 64.3077 116.522 60.9231V5.07692H116.454ZM139.745 29.92C142.333 29.92 144.376 29.2431 145.942 27.8215C147.44 26.4677 148.19 24.4369 148.19 21.7969C148.19 20.1046 147.917 18.6831 147.372 17.5323C146.828 16.3138 145.806 15.4338 144.24 14.8246C142.81 14.2154 140.766 13.8769 138.11 13.8769H132.662V29.92H139.745Z" fill="#AEF3B1"/>
<path d="M189.596 13.8769H174.545C171.14 13.8769 169.438 12.1846 169.438 8.8V5.07692C169.438 1.69231 171.14 0 174.545 0H220.922C224.328 0 226.03 1.69231 226.03 5.07692V8.8C226.03 12.1846 224.328 13.8769 220.922 13.8769H205.872V60.9231C205.872 64.3077 204.169 66 200.764 66H194.703C191.298 66 189.596 64.3077 189.596 60.9231V13.8769Z" fill="#AEF3B1"/>
<path d="M232.977 5.07692C232.977 1.69231 234.679 0 238.084 0H244.145C247.55 0 249.253 1.69231 249.253 5.07692V52.1908H271.25C274.655 52.1908 276.357 53.8831 276.357 57.2677V60.9231C276.357 64.3077 274.655 66 271.25 66H238.084C234.679 66 232.977 64.3077 232.977 60.9231V5.07692Z" fill="#AEF3B1"/>
<path d="M293.314 38.9908L274.791 6.09231C273.769 4.33231 273.565 2.84308 274.246 1.69231C274.927 0.541538 276.289 0 278.264 0H285.619C288.411 0 290.386 1.28615 291.544 3.79077L297.332 15.9077C297.809 17.0585 298.354 18.2092 298.831 19.2923C299.307 20.3754 299.784 21.3908 300.125 22.3385C300.533 23.4215 300.942 24.4369 301.351 25.3846H301.555C301.895 24.4369 302.304 23.4215 302.781 22.3385C303.121 21.3908 303.598 20.3754 304.006 19.2923C304.483 18.2092 304.96 17.0585 305.573 15.9077L311.225 3.79077C312.383 1.28615 314.358 0 317.15 0H324.505C326.48 0 327.842 0.541538 328.523 1.69231C329.204 2.84308 329.068 4.26462 327.978 6.09231L309.523 38.9908V60.9231C309.523 64.3077 307.82 66 304.415 66H298.354C294.949 66 293.246 64.3077 293.246 60.9231V38.9908H293.314Z" fill="#AEF3B1"/>
</svg>
